<svg width="36" height="36" viewBox="0 0 36 36" fill="none" xmlns="http://www.w3.org/2000/svg">
<g clip-path="url(#clip0_126_212)">
<path d="M6.64222 31.9638C6.79062 32.0846 6.96923 32.1434 7.14668 32.1434C7.37897 32.1434 7.60939 32.0427 7.76738 31.8486C8.04623 31.506 7.9946 31.0023 7.65213 30.7234C5.28939 28.7999 3.54575 26.3086 2.55201 23.5241C5.56024 24.1329 8.6528 24.5601 11.7992 24.802C11.9457 26.2462 12.1395 27.6346 12.3782 28.9408C12.4577 29.3753 12.8742 29.6628 13.3087 29.5838C13.7432 29.5044 14.031 29.0878 13.9517 28.6534C13.7353 27.4694 13.557 26.2146 13.4184 24.91C14.7201 24.9834 16.0305 25.0255 17.3469 25.0359C17.349 25.0359 17.3513 25.0359 17.3534 25.0359C17.7922 25.0359 18.1495 24.682 18.153 24.2425C18.1564 23.8007 17.8013 23.4399 17.3596 23.4364C15.9883 23.4256 14.624 23.3797 13.2696 23.2991C13.1343 21.5862 13.0647 19.8055 13.0647 18C13.0647 16.5061 13.1116 15.0398 13.202 13.6233C14.7778 13.7289 16.3772 13.7818 17.9974 13.7818C19.6097 13.7818 21.2101 13.7281 22.7913 13.6215C22.8658 14.7784 22.9112 15.9671 22.9254 17.1746C22.9305 17.6131 23.2875 17.965 23.7249 17.965C23.728 17.965 23.7312 17.965 23.7344 17.965C24.176 17.9599 24.5299 17.5977 24.5247 17.156C24.5102 15.9135 24.4629 14.6892 24.385 13.4955C26.1638 13.3338 27.9148 13.1042 29.6275 12.8073C30.0626 12.7319 30.3544 12.318 30.2789 11.8827C30.2035 11.4476 29.7894 11.1556 29.3543 11.2313C27.6907 11.5196 25.9897 11.743 24.261 11.9006C23.9201 8.12824 23.2671 4.7436 22.3757 2.19017C25.7202 3.10962 28.7055 5.07914 30.9114 7.89383C31.1839 8.24154 31.6865 8.30241 32.0342 8.03005C32.3818 7.7576 32.4429 7.25491 32.1703 6.90729C28.7314 2.51949 23.5656 0.00292969 17.9971 0.00292969C16.9099 0.00292969 15.8442 0.0999664 14.8096 0.285598C14.7857 0.288886 14.7618 0.293151 14.7384 0.298572C8.8243 1.38481 3.91168 5.37149 1.53659 10.7245C1.51189 10.7688 1.49101 10.8159 1.47475 10.8656C0.526238 13.0541 0 15.467 0 18C0 23.4378 2.42103 28.5275 6.64222 31.9638ZM15.478 1.79562C16.2994 1.66846 17.1406 1.60244 17.9971 1.60244C18.8487 1.60244 19.6901 1.66704 20.5153 1.79349C21.5446 4.28214 22.2963 7.90147 22.668 12.0266C21.1277 12.1302 19.5685 12.1822 17.9972 12.1822C16.418 12.1822 14.8588 12.1307 13.3238 12.0284C13.6925 7.90547 14.4407 4.3008 15.478 1.79562ZM13.6155 2.19683C12.7197 4.75817 12.0698 8.13189 11.7313 11.9031C8.84963 11.6414 6.05831 11.1965 3.38091 10.571C5.44863 6.51976 9.15282 3.43574 13.6155 2.19683ZM1.59951 18C1.59951 15.9052 1.99458 13.9003 2.71383 12.057C5.56237 12.7386 8.53639 13.22 11.6084 13.498C11.514 14.9577 11.465 16.4658 11.465 18C11.465 19.7631 11.5299 21.5047 11.6566 23.1864C8.37635 22.9228 5.1585 22.4537 2.03786 21.7829C1.74888 20.5574 1.59951 19.2895 1.59951 18ZM29.5974 1.82859C30.915 1.53126 32.6878 1.37939 33.6529 2.34443C34.7809 3.47244 34.6115 6.0097 33.1882 9.30575C31.7298 12.6829 29.0855 16.5999 25.7051 20.4009C25.0981 19.9554 24.3495 19.692 23.5406 19.692C21.5191 19.692 19.8746 21.3365 19.8746 23.3579C19.8746 25.3794 21.5191 27.0239 23.5406 27.0239C25.562 27.0239 27.2065 25.3794 27.2065 23.3579C27.2065 22.7277 27.0466 22.1339 26.7652 21.6153C30.3209 17.6424 33.1131 13.5143 34.6567 9.93986C36.4036 5.89453 36.4476 2.87689 34.784 1.21331C33.9672 0.396408 32.3431 -0.430625 29.2456 0.26827C28.8147 0.365484 28.5442 0.793619 28.6414 1.22442C28.7386 1.65522 29.1666 1.92598 29.5974 1.82859ZM23.5405 25.4244C22.401 25.4244 21.474 24.4974 21.474 23.3579C21.474 22.2185 22.401 21.2915 23.5405 21.2915C24.6799 21.2915 25.6069 22.2185 25.6069 23.3579C25.6069 24.4974 24.6799 25.4244 23.5405 25.4244ZM19.7978 28.3305C16.0309 31.449 12.1836 33.8365 8.96461 35.0534C7.29873 35.6832 5.82434 35.9976 4.57192 35.9976C3.15183 35.9976 2.01707 35.5935 1.21038 34.7869C0.3973 33.9738 -0.427957 32.3585 0.257965 29.2813C0.354113 28.8502 0.781626 28.5786 1.2126 28.6747C1.64376 28.7708 1.91532 29.1982 1.81926 29.6293C1.52788 30.9365 1.38197 32.6962 2.3415 33.6558C3.36687 34.6813 5.51821 34.6463 8.39901 33.5572C11.4574 32.4011 15.1432 30.1072 18.7778 27.0983C19.1179 26.8167 19.6221 26.8642 19.9038 27.2043C20.1855 27.5446 20.1381 28.0488 19.7978 28.3305ZM35.6344 14.4027C35.8733 15.5804 35.9945 16.7908 35.9945 18C35.9945 19.5985 35.785 21.1493 35.392 22.6257C35.3863 22.6527 35.3791 22.6791 35.3708 22.7052C33.5748 29.3288 28.0822 34.4486 21.2548 35.702C21.232 35.7071 21.2091 35.7113 21.186 35.7145C20.1508 35.9003 19.0851 35.9973 17.9973 35.9973C16.687 35.9973 15.3788 35.8556 14.1091 35.576C13.6777 35.481 13.405 35.0543 13.5 34.623C13.5949 34.1916 14.0219 33.9189 14.4531 34.0139C15.6101 34.2687 16.8025 34.3978 17.9974 34.3978C18.8539 34.3978 19.6948 34.3319 20.5162 34.2047C21.0568 32.8938 21.5387 31.2127 21.918 29.309C22.0044 28.8759 22.4255 28.5947 22.8586 28.681C23.2918 28.7673 23.573 29.1884 23.4866 29.6216C23.1732 31.1945 22.8024 32.5944 22.3793 33.8035C27.5183 32.3768 31.6502 28.505 33.4374 23.5252C32.1989 23.7756 30.9404 23.9964 29.6808 24.1843C29.2436 24.2492 28.8371 23.9481 28.7718 23.5111C28.7067 23.0743 29.008 22.6673 29.4449 22.6022C30.9616 22.376 32.4762 22.101 33.9546 21.7835C34.2427 20.5685 34.3951 19.302 34.3951 18.0002C34.3951 16.8974 34.2847 15.7941 34.067 14.7208C33.9792 14.2879 34.2589 13.8659 34.6918 13.7781C35.1243 13.6902 35.5466 13.9697 35.6344 14.4027Z" fill="white"/>
</g>
<defs>
<clipPath id="clip0_126_212">
<rect width="36" height="36" fill="white"/>
</clipPath>
</defs>
</svg>
