<svg width="34" height="34" viewBox="0 0 34 34" fill="none" xmlns="http://www.w3.org/2000/svg">
<path d="M33.9997 32.5025C33.9995 31.3025 33.2859 30.2234 32.1816 29.7536L23.7117 26.15V24.0382C24.6084 22.9124 25.1755 21.5716 25.3654 20.1319H27.0969C28.7446 20.1319 30.0851 18.7913 30.0851 17.1436V12.8596C30.0851 11.353 28.964 10.1039 27.5124 9.90083C27.2971 3.41969 23.6736 0 17 0C10.3264 0 6.70288 3.41969 6.48758 9.90083C5.03598 10.1039 3.91486 11.353 3.91486 12.8596V17.1436C3.91486 18.7913 5.25543 20.1319 6.90314 20.1319H8.63463C8.82451 21.5718 9.39156 22.9127 10.2883 24.0382V26.15L1.81865 29.7536C0.714127 30.2234 0.000518799 31.3025 0 32.5027V33.0036C0 33.268 0.104797 33.5214 0.291824 33.7082C0.478592 33.8949 0.732025 34 0.996094 34H33.0039C33.2682 34 33.5217 33.8949 33.7084 33.7082C33.8952 33.5211 34 33.2677 34 33.0036L33.9997 32.5025ZM21.7206 26.8488C21.7213 26.8727 21.7771 29.2903 20.3491 30.7775C19.5649 31.5938 18.4381 32.0075 17 32.0075C15.5671 32.0075 14.4431 31.5966 13.6595 30.7863C12.2143 29.2913 12.2789 26.8698 12.2794 26.8488C12.2802 26.8353 12.2805 26.8221 12.2805 26.8086V25.8224C13.6444 26.6854 15.2714 27.1489 17 27.1489C18.7286 27.1489 20.3556 26.6854 21.7195 25.8224V26.8086C21.7195 26.8221 21.7198 26.8353 21.7206 26.8488ZM23.4445 18.6027L21.5496 19.8663C20.9478 20.2675 20.2472 20.4797 19.5234 20.4797H17.8386C17.2887 20.4797 16.8425 20.9257 16.8425 21.4758C16.8425 22.026 17.2887 22.4719 17.8386 22.4719H19.5234C20.6417 22.4719 21.7247 22.1441 22.6549 21.5236L23.0362 21.2694C22.1374 23.5887 19.8386 25.1567 17 25.1567C13.3261 25.1567 10.5555 22.5303 10.5555 19.0473V10.9719C10.9482 9.14623 11.5171 7.98593 12.2029 7.61395C12.8859 7.24301 13.8784 7.62874 14.8382 8.0015C15.586 8.29177 16.2924 8.56621 17 8.56621C17.7141 8.56621 18.4119 8.28891 19.1509 7.99553C20.1118 7.61369 21.0194 7.25312 21.6918 7.60383C22.1818 7.85934 22.8803 8.65493 23.4445 10.9846V18.6027ZM28.093 12.8596V17.1436C28.093 17.6927 27.646 18.1397 27.0969 18.1397H25.4367V11.8635H27.0969C27.646 11.8635 28.093 12.3104 28.093 12.8596ZM10.2556 4.43239C11.6351 2.81321 13.9041 1.9922 17 1.9922C20.0959 1.9922 22.3649 2.81321 23.7444 4.43239C24.8305 5.70735 25.4256 7.53535 25.5176 9.87126H25.2121C24.6105 7.73483 23.7758 6.44379 22.6129 5.83731C21.1315 5.06481 19.6254 5.66299 18.4153 6.14392C17.883 6.35533 17.3325 6.57401 16.9997 6.57401C16.6654 6.57401 16.103 6.35559 15.5593 6.14444C14.3064 5.65754 12.7469 5.05184 11.2525 5.86273C10.1257 6.4744 9.30984 7.78982 8.76952 9.87126H8.48236C8.57419 7.53535 9.16951 5.70735 10.2556 4.43239ZM5.90704 17.1436V12.8596C5.90704 12.3104 6.35399 11.8635 6.90314 11.8635H8.56329V18.1397H6.90314C6.35399 18.1397 5.90704 17.6927 5.90704 17.1436ZM2.5984 31.5868L10.4024 28.2665C10.5773 29.3474 11.0115 30.8182 12.0761 32.0078H2.12396C2.22954 31.8234 2.394 31.6737 2.5984 31.5868ZM21.9239 32.0078C22.9885 30.8182 23.4227 29.3474 23.5976 28.2665L31.4016 31.5868C31.606 31.6737 31.7702 31.8234 31.876 32.0078H21.9239Z" fill="white"/>
</svg>
