<svg width="40" height="40" viewBox="0 0 40 40" fill="none" xmlns="http://www.w3.org/2000/svg">
<g clip-path="url(#clip0_126_229)">
<path d="M31.3948 23.0715C31.3948 23.0715 26.348 19.9575 26.3417 19.9536C25.9785 19.7294 25.4893 19.8476 25.2659 20.2082C25.042 20.5695 25.1608 21.0614 25.5206 21.2832C25.5206 21.2832 30.5706 24.3993 30.5737 24.4011C30.9367 24.6251 31.4255 24.5099 31.6487 24.1465C31.8719 23.7831 31.7581 23.2955 31.3948 23.0715Z" fill="white"/>
<path d="M23.2719 18.1964C22.7729 18.1963 22.3967 18.6713 22.5108 19.157C22.5561 19.3504 22.6891 19.5261 22.8643 19.637C22.9845 19.7132 23.1247 19.7589 23.2702 19.7589C23.5436 19.7589 23.7928 19.6207 23.9358 19.388C24.2403 18.8922 23.8575 18.1965 23.2719 18.1964Z" fill="white"/>
<path d="M15.1824 20.1678C14.962 19.8168 14.4539 19.7034 14.1049 19.9238C14.1049 19.9238 9.09068 23.0857 9.08225 23.091C8.72092 23.3188 8.61068 23.8069 8.83826 24.168C8.97506 24.3851 9.23904 24.5123 9.50037 24.5197C9.6474 24.5238 9.79357 24.49 9.91584 24.4129C9.91584 24.4129 14.935 21.2472 14.9385 21.2449C15.2997 21.0171 15.4094 20.5294 15.1824 20.1678Z" fill="white"/>
<path d="M17.1636 18.1364C16.8007 18.1364 16.4829 18.3914 16.4026 18.7448C16.2933 19.2263 16.6745 19.6988 17.1651 19.6988C17.5272 19.6988 17.8469 19.4439 17.9268 19.0902C18.0363 18.6058 17.6586 18.1364 17.1636 18.1364Z" fill="white"/>
<path d="M39.8083 35.5831C39.5252 35.2574 39.0318 35.2231 38.7061 35.5062C37.8731 36.2305 37.1022 36.9814 36.0091 37.2835C34.794 37.6193 33.6393 37.3543 32.5396 36.8045L36.6083 23.1151C36.7095 22.7746 36.5681 22.4086 36.2643 22.2244L32.5 19.9436V13.2832C32.5 12.8518 32.1502 12.5019 31.7187 12.5019H30.1562V10.1582C30.1562 9.72678 29.8065 9.37694 29.375 9.37694H26.9141V7.03319C26.9141 6.60178 26.5643 6.25194 26.1328 6.25194H22.3438V0.783202C22.3438 0.351796 21.994 0.00195312 21.5625 0.00195312H18.4375C18.006 0.00195312 17.6563 0.351796 17.6563 0.783202V6.25194H13.8672C13.4357 6.25194 13.086 6.60178 13.086 7.03319V9.37694H10.625C10.1935 9.37694 9.84377 9.72678 9.84377 10.1582V12.5019H8.28128C7.84979 12.5019 7.50003 12.8518 7.50003 13.2832V19.9436L3.73582 22.2243C3.43191 22.4085 3.29058 22.7745 3.39183 23.115C3.39183 23.115 7.4505 36.7705 7.45221 36.7764C7.38292 36.5433 6.13276 36.3898 5.91175 36.3612C3.63699 36.0668 1.90723 37.2063 0.268634 38.6311C-0.0569899 38.9142 -0.0913648 39.4076 0.191682 39.7332C0.461915 40.044 0.964805 40.0962 1.29379 39.8102C2.98191 38.3427 4.88511 37.224 7.1187 38.3409C9.13932 39.3512 11.2309 39.7844 13.3355 38.6769C15.0325 37.7836 16.6702 37.0123 18.5644 37.9141L20.5118 38.8415C22.1779 39.6349 24.0801 39.6166 25.7305 38.7913C26.7475 38.2828 27.7812 37.6061 28.9429 37.5263C30.0816 37.4481 31.1819 37.872 32.1825 38.3727C33.5043 39.0337 35.0517 39.1657 36.4711 38.7611C37.7785 38.3884 38.73 37.5557 39.7313 36.6851C40.057 36.402 40.0914 35.9087 39.8083 35.5831ZM30.9375 14.0644V18.9968L22.797 14.0644H30.9375ZM19.2188 1.56445H20.7813V6.25194H19.2188V1.56445ZM14.6485 7.81444H25.3516V9.37694H14.6485V7.81444ZM9.06252 14.0644H17.203L9.06252 18.9968V14.0644ZM19.2188 36.4952C19.2189 36.3564 18.1051 36.1003 17.9594 36.0688C16.5997 35.7745 15.14 35.9613 13.9074 36.6102C13.013 37.0809 12.1501 37.63 11.1272 37.7617C11.1253 37.762 11.1235 37.7622 11.1216 37.7624C10.5239 37.8351 9.91221 37.7911 9.33377 37.6224L5.06136 23.2482L19.2188 14.6701C19.2188 14.6701 19.2188 36.4944 19.2188 36.4952ZM11.4063 12.5019V10.9394H28.5937V12.5019H11.4063ZM31.0955 36.1784C31.1041 35.9367 28.9049 35.9388 28.7576 35.9544C27.4015 36.0978 26.2284 36.7956 25.0316 37.3939C23.6179 38.1008 22.1632 37.8976 20.7813 37.2392V14.6701L34.9386 23.2482L31.0955 36.1784Z" fill="white"/>
</g>
<defs>
<clipPath id="clip0_126_229">
<rect width="40" height="40" fill="white"/>
</clipPath>
</defs>
</svg>
