<svg width="60" height="55" viewBox="0 0 60 55" fill="none" xmlns="http://www.w3.org/2000/svg">
<path d="M5.81694 5.8165C11.2205 0.413224 20.0123 0.413107 25.4157 5.8165L28.7365 9.13725L21.4107 16.463C20.9127 16.9609 20.6385 17.6231 20.6385 18.3274C20.6385 19.0317 20.9127 19.694 21.4107 20.1919C23.9439 22.7249 28.0657 22.725 30.5989 20.1919L34.9457 15.8452L43.6498 24.2522C43.8204 24.417 44.0403 24.4989 44.2603 24.4989C44.4903 24.4989 44.7201 24.4091 44.8926 24.2306C45.2299 23.8814 45.2202 23.325 44.8711 22.9879L35.5456 13.9807C35.2008 13.6477 34.6526 13.6525 34.3135 13.9914L29.356 18.9489C27.5081 20.7966 24.5015 20.7966 22.6537 18.9489C22.3111 18.6062 22.3111 18.0485 22.6537 17.7059L30.3409 10.0187C30.3753 9.98428 30.4055 9.94713 30.4331 9.90869C30.435 9.90775 30.4366 9.90658 30.4385 9.90553C30.45 9.89955 30.461 9.89264 30.4721 9.88619C30.4862 9.87799 30.5004 9.87014 30.5141 9.86111C30.527 9.85256 30.5393 9.84307 30.5517 9.83393C30.5628 9.82561 30.5743 9.81799 30.5851 9.8092C30.6057 9.79244 30.6255 9.7744 30.6446 9.75565C30.647 9.75342 30.6494 9.75154 30.6517 9.74932C30.6518 9.7492 30.6519 9.74908 30.6519 9.74908C30.652 9.74897 30.6521 9.74885 30.6523 9.74885L34.5844 5.81662C36.9334 3.4676 40.0492 2.03955 43.3575 1.79545C46.6321 1.55463 49.8889 2.47901 52.5279 4.40053C52.9205 4.68623 53.4701 4.59975 53.7558 4.2074C54.0415 3.81506 53.955 3.26522 53.5626 2.97951C50.5877 0.813302 46.9173 -0.229667 43.2282 0.0424425C39.4997 0.317482 35.9885 1.92682 33.3415 4.57373L30.0001 7.91522L26.6587 4.57373C20.57 -1.51521 10.6629 -1.51521 4.57393 4.57361C1.70553 7.44201 0.0822519 11.2547 0.00303315 15.3093C-0.075834 19.3522 1.38561 23.214 4.11819 26.1833C4.29151 26.3717 4.52788 26.467 4.76518 26.467C4.97788 26.467 5.19128 26.3903 5.36014 26.2349C5.71733 25.9062 5.74042 25.3503 5.4117 24.9931C2.98721 22.3586 1.69053 18.9317 1.76061 15.3436C1.83081 11.7455 3.27139 8.36205 5.81694 5.8165Z" fill="#01ADEF"/>
<path d="M56.5077 5.7714C56.2014 5.395 55.6478 5.33816 55.2713 5.64449C54.8949 5.95093 54.838 6.50441 55.1444 6.88093C57.2966 9.52527 58.391 12.866 58.226 16.2877C58.0599 19.7327 56.6242 22.9743 54.1832 25.4153L50.8428 28.7557L47.6264 25.6492C47.2772 25.3119 46.7209 25.3218 46.3836 25.6708C46.0465 26.02 46.0561 26.5764 46.4052 26.9135L50.2378 30.6153L52.4294 32.8068C53.5246 33.902 53.5246 35.6842 52.4294 36.7794C51.3342 37.8747 49.552 37.8747 48.4568 36.7796C48.4566 36.7793 48.4565 36.7792 48.4562 36.779L41.0204 29.3433C40.6772 29.0001 40.1207 29.0001 39.7776 29.3433C39.4343 29.6866 39.4343 30.2431 39.7776 30.5862L47.2139 38.0226L47.2178 38.0264L48.199 39.0076C49.2942 40.1029 49.2942 41.8851 48.199 42.9803C47.1037 44.0755 45.3215 44.0754 44.2263 42.9803L43.241 41.9951L36.0047 34.7588C35.6615 34.4155 35.1049 34.4155 34.7618 34.7588C34.4186 35.102 34.4186 35.6585 34.7618 36.0017L41.9981 43.238C42.5288 43.7686 42.8209 44.474 42.8209 45.2243C42.8209 45.9746 42.5288 46.68 41.9981 47.2107C41.4675 47.7413 40.7622 48.0334 40.0118 48.0334C39.2616 48.0334 38.5561 47.7413 38.0255 47.2105L37.0403 46.2255L35.1598 44.345C35.1068 44.292 35.0482 44.2482 34.9866 44.2115C34.7645 43.6909 34.4426 43.2031 34.0186 42.7791C32.9485 41.7089 31.4752 41.2828 30.0831 41.4991C30.2993 40.107 29.8732 38.6336 28.8031 37.5634C27.7329 36.4933 26.2595 36.0672 24.8676 36.2834C25.0838 34.8914 24.6577 33.418 23.5875 32.3479C22.5182 31.2785 21.0462 30.8523 19.6551 31.0674C19.6908 30.8359 19.7096 30.6001 19.7096 30.3616C19.7096 29.1416 19.2345 27.9948 18.3719 27.1322C17.5094 26.2696 16.3624 25.7945 15.1425 25.7945C13.9227 25.7945 12.7758 26.2696 11.9133 27.1322L9.72365 29.3219L8.08596 27.6842C7.74271 27.3409 7.18619 27.3409 6.84307 27.6842C6.49982 28.0274 6.49982 28.5839 6.84307 28.9272L8.48076 30.5649L7.48174 31.5639C6.61912 32.4264 6.14404 33.5733 6.14404 34.7932C6.14404 36.013 6.61912 37.16 7.48174 38.0225C8.33662 38.8775 9.471 39.351 10.6786 39.3593C10.0556 40.991 10.3992 42.9105 11.7121 44.2233C12.6024 45.1137 13.7719 45.5588 14.9414 45.5588C15.4964 45.5588 16.051 45.4573 16.5762 45.2568C16.5845 46.4645 17.0581 47.5988 17.9131 48.4538C18.8033 49.3442 19.9729 49.7892 21.1424 49.7892C21.6981 49.7892 22.2535 49.6875 22.7792 49.4864C22.7871 50.6453 23.2316 51.8018 24.1139 52.6841C25.0042 53.5744 26.1737 54.0196 27.3431 54.0196C28.5127 54.0196 29.6822 53.5744 30.5725 52.6841L30.5773 52.6794L30.582 52.6841C31.4724 53.5744 32.6418 54.0196 33.8113 54.0196C34.9808 54.0196 36.1504 53.5744 37.0406 52.6841C37.9219 51.8029 38.367 50.6482 38.376 49.4908C38.8913 49.6882 39.4438 49.7912 40.0122 49.7912C41.2321 49.7912 42.3789 49.3162 43.2415 48.4535C44.096 47.599 44.5703 46.4655 44.5791 45.2583C46.2104 45.8809 48.1299 45.5358 49.4425 44.2232C50.7556 42.9101 51.1003 40.9896 50.4768 39.3577C51.6351 39.3492 52.791 38.9042 53.6728 38.0223C55.4535 36.2417 55.4535 33.3444 53.6728 31.5638L52.0969 29.9878L55.4267 26.6581C58.1772 23.9075 59.7951 20.2546 59.9822 16.3723C60.1677 12.5173 58.934 8.75242 56.5077 5.7714ZM7.90174 34.7932C7.90174 34.0429 8.19389 33.3375 8.72451 32.8069L13.1561 28.3753C13.6867 27.8447 14.392 27.5526 15.1424 27.5526C15.8928 27.5526 16.5981 27.8447 17.1287 28.3753C17.6594 28.906 17.9515 29.6113 17.9515 30.3617C17.9515 31.1119 17.6594 31.8174 17.1287 32.348L12.6976 36.7792C12.6975 36.7793 12.6973 36.7794 12.6972 36.7797C12.1665 37.3103 11.4612 37.6025 10.7108 37.6025C9.96061 37.6025 9.25514 37.3103 8.72451 36.7797C8.19389 36.2489 7.90174 35.5435 7.90174 34.7932ZM12.9549 42.9804C11.8596 41.8852 11.8596 40.103 12.9549 39.0078L18.3717 33.5909C18.9195 33.0433 19.6387 32.7695 20.3581 32.7695C21.0774 32.7695 21.7969 33.0434 22.3444 33.5909C23.4396 34.6861 23.4396 36.4683 22.3444 37.5635L16.9275 42.9804C15.8322 44.0757 14.0502 44.0755 12.9549 42.9804ZM19.1557 47.2108C18.6251 46.6801 18.3329 45.9748 18.3329 45.2244C18.3329 44.4742 18.6251 43.7687 19.1557 43.2381C19.156 43.2379 19.1561 43.2378 19.1563 43.2375L23.5874 38.8064C24.6828 37.7112 26.4648 37.7112 27.5601 38.8066C28.6553 39.9018 28.6553 41.684 27.5601 42.7792L24.1142 46.2251C24.1139 46.2253 24.1138 46.2255 24.1136 46.2257C24.1132 46.226 24.1129 46.2265 24.1125 46.2269L23.1284 47.211C22.5979 47.7415 21.8924 48.0338 21.1421 48.0338C20.3918 48.0335 19.6863 47.7414 19.1557 47.2108ZM25.3566 51.4412C24.2615 50.3461 24.2613 48.5644 25.356 47.4692L28.8029 44.0222C29.8983 42.927 31.6804 42.9271 32.7756 44.0222C33.8708 45.1175 33.8708 46.8996 32.7756 47.9949L29.9565 50.8141C29.9562 50.8144 29.9558 50.8146 29.9555 50.815C29.9551 50.8153 29.9549 50.8157 29.9545 50.816L29.3294 51.4412C28.234 52.5365 26.4519 52.5364 25.3566 51.4412ZM35.7974 51.4412C34.702 52.5365 32.92 52.5365 31.8247 51.4412L31.8199 51.4364L34.0186 49.2376C34.6735 48.5828 35.0865 47.7768 35.2597 46.9309L35.7974 47.4686C36.8926 48.5638 36.8926 50.3459 35.7974 51.4412Z" fill="#01ADEF"/>
</svg>
