<svg width="57" height="44" viewBox="0 0 57 44" fill="none" xmlns="http://www.w3.org/2000/svg">
<path d="M55.9753 23.7122L44.3372 12.0741C44.0767 11.8119 43.7666 11.604 43.4251 11.4625C43.0836 11.3211 42.7175 11.2488 42.3478 11.25H26.25V13.125H30.9375V27.1875H32.8125V13.125H42.3478C42.4711 13.1249 42.5931 13.1491 42.707 13.1963C42.8209 13.2434 42.9244 13.3125 43.0116 13.3997L44.6119 15H40.3125C39.8152 15 39.3383 15.1976 38.9867 15.5492C38.635 15.9008 38.4375 16.3777 38.4375 16.875V25.3125C38.4375 25.8098 38.635 26.2867 38.9867 26.6383C39.3383 26.99 39.8152 27.1875 40.3125 27.1875H54.375V34.6875C54.375 34.9362 54.2762 35.1746 54.1004 35.3504C53.9246 35.5262 53.6861 35.625 53.4375 35.625H51.4875C51.2633 34.0642 50.484 32.6365 49.2924 31.6038C48.1008 30.5711 46.5768 30.0027 45 30.0027C43.4232 30.0027 41.8992 30.5711 40.7076 31.6038C39.516 32.6365 38.7367 34.0642 38.5125 35.625H25.2375C25.0133 34.0642 24.234 32.6365 23.0424 31.6038C21.8508 30.5711 20.3268 30.0027 18.75 30.0027C17.1732 30.0027 15.6492 30.5711 14.4576 31.6038C13.266 32.6365 12.4867 34.0642 12.2625 35.625H10.3125C10.0639 35.625 9.8254 35.5262 9.64959 35.3504C9.47377 35.1746 9.375 34.9362 9.375 34.6875V26.25H7.5V34.6875C7.5 35.4334 7.79632 36.1488 8.32376 36.6763C8.85121 37.2037 9.56658 37.5 10.3125 37.5H12.2625C12.4671 38.9255 13.1364 40.2437 14.1666 41.25H0V43.125H45C46.5764 43.122 48.0991 42.5521 49.2902 41.5194C50.4812 40.4867 51.2611 39.0601 51.4875 37.5H53.4375C54.1834 37.5 54.8988 37.2037 55.4262 36.6763C55.9537 36.1488 56.25 35.4334 56.25 34.6875V24.375C56.2499 24.1264 56.1511 23.888 55.9753 23.7122ZM14.0625 36.5625C14.0625 35.6354 14.3374 34.7291 14.8525 33.9583C15.3676 33.1874 16.0996 32.5866 16.9562 32.2318C17.8127 31.877 18.7552 31.7842 19.6645 31.9651C20.5738 32.146 21.409 32.5924 22.0646 33.248C22.7201 33.9035 23.1666 34.7387 23.3474 35.648C23.5283 36.5573 23.4355 37.4998 23.0807 38.3563C22.7259 39.2129 22.1251 39.945 21.3542 40.46C20.5834 40.9751 19.6771 41.25 18.75 41.25C17.5073 41.2485 16.3158 40.7542 15.4371 39.8754C14.5583 38.9967 14.064 37.8053 14.0625 36.5625ZM23.3334 41.25C24.3636 40.2437 25.0329 38.9255 25.2375 37.5H38.5125C38.7171 38.9255 39.3864 40.2437 40.4166 41.25H23.3334ZM45 41.25C44.0729 41.25 43.1666 40.9751 42.3958 40.46C41.6249 39.945 41.0241 39.2129 40.6693 38.3563C40.3145 37.4998 40.2217 36.5573 40.4026 35.648C40.5834 34.7387 41.0299 33.9035 41.6854 33.248C42.341 32.5924 43.1762 32.146 44.0855 31.9651C44.9948 31.7842 45.9373 31.877 46.7938 32.2318C47.6504 32.5866 48.3824 33.1874 48.8975 33.9583C49.4126 34.7291 49.6875 35.6354 49.6875 36.5625C49.686 37.8053 49.1917 38.9967 48.3129 39.8754C47.4342 40.7542 46.2427 41.2485 45 41.25ZM40.3125 25.3125V16.875H46.4869L54.375 24.7631V25.3125H40.3125Z" fill="#01ADEF"/>
<path d="M19.6875 35.625H17.8125V37.5H19.6875V35.625Z" fill="#01ADEF"/>
<path d="M45.9375 35.625H44.0625V37.5H45.9375V35.625Z" fill="#01ADEF"/>
<path d="M4.6875 32.8125H0V34.6875H4.6875V32.8125Z" fill="#01ADEF"/>
<path d="M4.6875 29.0625H1.875V30.9375H4.6875V29.0625Z" fill="#01ADEF"/>
<path d="M4.6875 25.3125H2.8125V27.1875H4.6875V25.3125Z" fill="#01ADEF"/>
<path d="M12.1875 24.375C14.598 24.375 16.9543 23.6602 18.9585 22.321C20.9627 20.9819 22.5248 19.0784 23.4473 16.8515C24.3697 14.6245 24.6111 12.174 24.1408 9.80984C23.6706 7.4457 22.5098 5.27409 20.8054 3.56964C19.1009 1.86519 16.9293 0.704442 14.5652 0.234185C12.201 -0.236072 9.75052 0.00528065 7.52354 0.927724C5.29657 1.85017 3.39314 3.41227 2.05396 5.41649C0.714784 7.42072 0 9.77704 0 12.1875C0.00372185 15.4187 1.28895 18.5165 3.57375 20.8013C5.85854 23.0861 8.95632 24.3713 12.1875 24.375ZM12.1875 1.87501C14.2271 1.87501 16.2209 2.47982 17.9168 3.61297C19.6127 4.74613 20.9345 6.35672 21.715 8.24108C22.4955 10.1254 22.6998 12.1989 22.3018 14.1994C21.9039 16.1998 20.9218 18.0373 19.4795 19.4795C18.0373 20.9218 16.1998 21.9039 14.1994 22.3019C12.1989 22.6998 10.1254 22.4955 8.24108 21.715C6.35671 20.9345 4.74612 19.6127 3.61297 17.9168C2.47982 16.2209 1.875 14.2271 1.875 12.1875C1.87823 9.45345 2.96575 6.8323 4.89902 4.89903C6.83229 2.96576 9.45344 1.87823 12.1875 1.87501Z" fill="#01ADEF"/>
<path d="M12.1875 20.625C12.4361 20.6249 12.6745 20.5261 12.8503 20.3503C13.4541 19.7466 18.75 14.3344 18.75 10.3125C18.75 8.57202 18.0586 6.90282 16.8279 5.67211C15.5972 4.4414 13.928 3.75 12.1875 3.75C10.447 3.75 8.77782 4.4414 7.54711 5.67211C6.3164 6.90282 5.625 8.57202 5.625 10.3125C5.625 14.3344 10.9209 19.7466 11.5247 20.3503C11.7005 20.5261 11.9389 20.6249 12.1875 20.625ZM12.1875 5.625C13.4302 5.62649 14.6217 6.12083 15.5004 6.99958C16.3792 7.87833 16.8735 9.06975 16.875 10.3125C16.875 12.7181 13.9247 16.4353 12.1875 18.3291C10.4503 16.4353 7.5 12.7181 7.5 10.3125C7.50149 9.06975 7.99583 7.87833 8.87458 6.99958C9.75334 6.12083 10.9448 5.62649 12.1875 5.625Z" fill="#01ADEF"/>
<path d="M15 10.3125C15 9.75624 14.8351 9.21247 14.526 8.74996C14.217 8.28745 13.7777 7.92696 13.2638 7.71409C12.7499 7.50122 12.1844 7.44552 11.6388 7.55404C11.0932 7.66256 10.5921 7.93043 10.1988 8.32376C9.80543 8.7171 9.53756 9.21824 9.42904 9.76381C9.32052 10.3094 9.37622 10.8749 9.58909 11.3888C9.80196 11.9027 10.1624 12.342 10.625 12.651C11.0875 12.9601 11.6312 13.125 12.1875 13.125C12.9334 13.125 13.6488 12.8287 14.1762 12.3012C14.7037 11.7738 15 11.0584 15 10.3125ZM11.25 10.3125C11.25 10.1271 11.305 9.94583 11.408 9.79165C11.511 9.63748 11.6574 9.51732 11.8287 9.44636C12 9.37541 12.1885 9.35684 12.3704 9.39302C12.5523 9.42919 12.7193 9.51848 12.8504 9.64959C12.9815 9.7807 13.0708 9.94775 13.107 10.1296C13.1432 10.3115 13.1246 10.5 13.0536 10.6713C12.9827 10.8426 12.8625 10.989 12.7083 11.092C12.5542 11.195 12.3729 11.25 12.1875 11.25C11.9389 11.25 11.7004 11.1512 11.5246 10.9754C11.3488 10.7996 11.25 10.5611 11.25 10.3125Z" fill="#01ADEF"/>
<path d="M39.375 29.0625H35.625V30.9375H39.375V29.0625Z" fill="#01ADEF"/>
</svg>
