<svg width="60" height="60" viewBox="0 0 60 60" fill="none" xmlns="http://www.w3.org/2000/svg">
<g clip-path="url(#clip0_124_143)">
<path d="M59.1896 25.2827C60.361 32.4754 58.8282 39.8279 54.8737 45.9859C50.8918 52.1868 44.7755 56.6529 37.6517 58.5616C35.127 59.2383 32.5498 59.5733 29.9844 59.5734C25.3132 59.5737 20.6785 58.4632 16.4511 56.2822C10.457 53.1898 5.73894 48.1898 3.01445 42.0913L1.87328 45.2577C1.73593 45.6387 1.37664 45.876 0.993784 45.876C0.888433 45.876 0.78144 45.8581 0.676792 45.8203C0.19105 45.6452 -0.0607862 45.1096 0.114175 44.6238L2.10003 39.1136C2.19343 38.8543 2.39652 38.6495 2.65492 38.5538C2.91343 38.4579 3.20078 38.4811 3.44066 38.6172L8.53632 41.5049C8.9855 41.7593 9.14324 42.33 8.88882 42.7792C8.63417 43.2284 8.06394 43.3862 7.61441 43.1317L4.81796 41.5468C9.37128 51.5462 19.2611 57.7144 29.9211 57.7151C32.3155 57.7152 34.7473 57.4042 37.1678 56.7554C50.9624 53.0595 59.6362 39.6584 57.344 25.5834C57.261 25.0738 57.6068 24.5934 58.1165 24.5104C58.6258 24.4269 59.1065 24.7732 59.1896 25.2827ZM59.3233 14.1797C58.8375 14.005 58.3019 14.2565 58.1267 14.7422L56.9855 17.9085C54.261 11.81 49.5428 6.81001 43.5489 3.71778C36.9999 0.339265 29.4707 -0.470267 22.3483 1.43837C15.2241 3.34723 9.10726 7.8129 5.12464 14.0127C1.16933 20.1706 -0.364067 27.5235 0.807104 34.717C0.881753 35.1758 1.27843 35.502 1.72867 35.502C1.77859 35.502 1.82921 35.498 1.88007 35.4897C2.38972 35.4067 2.73566 34.9263 2.65269 34.4167C0.361089 20.342 9.03636 6.94091 22.8323 3.24469C36.0276 -0.292376 49.6043 6.20708 55.1811 18.4511L52.3858 16.8652C51.9366 16.6102 51.366 16.7679 51.1112 17.2171C50.8566 17.6661 51.0141 18.2368 51.4632 18.4916L56.5588 21.3825C56.7011 21.4631 56.8602 21.5043 57.0202 21.5043C57.1298 21.5043 57.2396 21.4849 57.3447 21.4461C57.6032 21.3504 57.8063 21.1457 57.8998 20.8863L59.8858 15.3763C60.061 14.8906 59.8089 14.3548 59.3233 14.1797ZM44.6912 22.2404L40.7466 29.0733H48.6911C48.5648 26.4636 47.9098 23.961 46.7358 21.622C46.5041 21.1606 46.6906 20.5986 47.1521 20.3671C47.6134 20.1353 48.1753 20.3218 48.407 20.7833C49.8523 23.6631 50.5851 26.7668 50.5851 30.0083C50.5851 41.3127 41.4256 50.5167 30.1387 50.5918C30.0921 50.5929 30.0459 50.5936 29.9999 50.5936C18.6474 50.5936 9.41148 41.3591 9.41148 30.0083C9.41148 18.6578 18.6474 9.42329 29.9999 9.42329C30.7034 9.42329 31.3998 9.4588 32.0789 9.52723C33.6448 7.31837 36.2195 5.87251 39.1272 5.87251C43.8876 5.87251 47.7604 9.74696 47.7604 14.5091C47.7604 16.97 46.4878 19.1468 45.3653 21.0673C45.1312 21.4678 44.91 21.8462 44.6991 22.2265C44.6965 22.2309 44.6939 22.2356 44.6912 22.2404ZM24.3933 16.5066C23.9473 17.4669 23.5555 18.5141 23.2199 19.63C25.3536 20.4577 27.6437 20.8909 29.9999 20.8909C30.9011 20.8909 31.7971 20.8262 32.6775 20.7009C31.6127 18.8679 30.4906 16.8077 30.4906 14.5089C30.4906 13.3849 30.7087 12.3116 31.101 11.3258C30.7374 11.3051 30.3701 11.293 29.9999 11.293C27.9757 11.2931 25.9322 13.1933 24.3933 16.5066ZM17.4904 16.0988C18.7141 17.2 20.0598 18.1234 21.4955 18.8568C22.39 15.9684 23.6288 13.5906 25.1025 11.9442C22.2348 12.7222 19.6384 14.1658 17.4904 16.0988ZM11.3049 29.0733H19.9482C20.0112 26.0518 20.3784 23.2187 20.9904 20.6952C19.2508 19.8474 17.6259 18.7494 16.1619 17.4183C13.3277 20.5296 11.5262 24.5971 11.3049 29.0733ZM16.1634 42.5998C17.6267 41.2683 19.2511 40.1701 20.9905 39.322C20.3784 36.7983 20.0112 33.965 19.948 30.9432H11.3049C11.5262 35.4202 13.3282 39.4882 16.1634 42.5998ZM25.1025 48.0723C23.6289 46.4261 22.3902 44.0483 21.4957 41.1604C20.0604 41.8941 18.715 42.8176 17.4919 43.9192C19.6397 45.8515 22.2355 47.2944 25.1025 48.0723ZM22.7372 38.5692C25.0281 37.707 27.4796 37.2556 30 37.2556C32.4828 37.2556 34.8982 37.6938 37.1596 38.531C37.7881 35.7284 38.0962 32.9207 38.1726 30.9432H21.8182C21.8774 33.635 22.1922 36.2209 22.7372 38.5692ZM36.7009 40.3562C34.5902 39.5481 32.3273 39.1256 29.9999 39.1256C27.6434 39.1256 25.3532 39.559 23.2199 40.3869C23.5555 41.5027 23.9473 42.5499 24.3933 43.5101C25.9322 46.8233 27.9756 48.7235 29.9999 48.7235C33.3501 48.7234 35.4619 44.7827 36.7009 40.3562ZM42.507 43.9181C41.2627 42.7977 39.8922 41.8608 38.429 41.1213C38.3436 41.4151 38.254 41.7082 38.1603 41.9997C37.2611 44.7932 36.1875 46.7182 35.0663 48.0264C37.8661 47.2379 40.4017 45.8129 42.507 43.9181ZM40.0434 30.9432C39.97 32.9264 39.668 36.049 38.9117 39.2745C40.6875 40.1285 42.3448 41.2427 43.8353 42.5986C46.6693 39.4872 48.4705 35.4196 48.6918 30.9432H40.0434ZM37.5079 29.0733L33.6752 22.4343C32.4734 22.6502 31.2405 22.7609 30 22.7609C27.4798 22.7609 25.0284 22.3096 22.7372 21.4475C22.1922 23.7959 21.8775 26.3816 21.8182 29.0733H37.5079ZM43.7511 20.1233C44.8029 18.324 45.8904 16.4633 45.8904 14.5089C45.8904 10.7777 42.8564 7.74223 39.1272 7.74223C35.3961 7.74223 32.3605 10.7777 32.3605 14.5089C32.3605 16.4481 33.4452 18.307 34.4943 20.1049C34.7255 20.501 34.9644 20.9105 35.1869 21.3131L39.1271 28.1383L43.0676 21.3122C43.2878 20.9157 43.5234 20.513 43.7511 20.1233ZM44.2429 14.5089C44.2429 17.3296 41.9479 19.6246 39.1272 19.6246C36.3046 19.6246 34.0082 17.3297 34.0082 14.5089C34.0082 11.6863 36.3046 9.38989 39.1272 9.38989C41.9479 9.38989 44.2429 11.6863 44.2429 14.5089ZM42.3729 14.5089C42.3729 12.7173 40.9169 11.2599 39.1272 11.2599C37.3356 11.2599 35.8782 12.7174 35.8782 14.5089C35.8782 16.2986 37.3357 17.7546 39.1272 17.7546C40.9169 17.7546 42.3729 16.2986 42.3729 14.5089Z" fill="#01ADEF"/>
</g>
<defs>
<clipPath id="clip0_124_143">
<rect width="60" height="60" fill="white"/>
</clipPath>
</defs>
</svg>
