<svg width="47" height="59" viewBox="0 0 47 59" fill="none" xmlns="http://www.w3.org/2000/svg">
<path d="M44.0625 0H30.9375C29.3869 0 28.125 1.26187 28.125 2.8125V4.6875C26.0569 4.6875 24.375 6.36937 24.375 8.4375C24.375 10.5056 26.0569 12.1875 28.125 12.1875V16.875H35.625V15C35.625 13.9659 36.4659 13.125 37.5 13.125C38.5341 13.125 39.375 13.9659 39.375 15V16.875H44.0625C45.6131 16.875 46.875 15.6131 46.875 14.0625V2.8125C46.875 1.26187 45.6131 0 44.0625 0ZM45 14.0625C45 14.5791 44.58 15 44.0625 15H41.25C41.25 12.9319 39.5681 11.25 37.5 11.25C35.4319 11.25 33.75 12.9319 33.75 15H30V10.3125H28.125C27.0909 10.3125 26.25 9.47156 26.25 8.4375C26.25 7.40344 27.0909 6.5625 28.125 6.5625H30V2.8125C30 2.29594 30.42 1.875 30.9375 1.875H44.0625C44.58 1.875 45 2.29594 45 2.8125V14.0625Z" fill="#01ADEF"/>
<path d="M28.125 18.75C26.0569 18.75 24.375 20.4319 24.375 22.5H20.625V17.8125H18.75C17.7159 17.8125 16.875 16.9716 16.875 15.9375C16.875 14.9034 17.7159 14.0625 18.75 14.0625H20.625V5.625H18.1116C8.12531 5.625 0 13.7503 0 23.7366C0 29.1909 2.42156 34.3003 6.64313 37.7541L10.3125 40.7569V43.2984C9.22406 43.6866 8.4375 44.7178 8.4375 45.9384C8.4375 47.235 9.32344 48.3187 10.5187 48.6422C10.3884 48.9656 10.3125 49.3172 10.3125 49.6875C10.3125 50.9269 11.1234 51.9694 12.2381 52.3434C12.6263 55.5947 15.3966 58.125 18.75 58.125C22.1034 58.125 24.8737 55.5947 25.2619 52.3434C26.3766 51.9694 27.1875 50.9269 27.1875 49.6875C27.1875 49.3172 27.1116 48.9656 26.9812 48.6412C28.1766 48.3169 29.0625 47.2341 29.0625 45.9375C29.0625 44.7169 28.2759 43.6856 27.1875 43.2975V40.7559L30.8569 37.7531C35.0784 34.3003 37.5 29.1909 37.5 23.7366V22.5H31.875C31.875 20.4319 30.1931 18.75 28.125 18.75ZM18.1116 7.5H18.75V12.1875C16.6819 12.1875 15 13.8694 15 15.9375C15 18.0056 16.6819 19.6875 18.75 19.6875V22.5H15C15 20.4319 13.3181 18.75 11.25 18.75C9.18187 18.75 7.5 20.4319 7.5 22.5H1.92188C2.55563 14.1225 9.57469 7.5 18.1116 7.5ZM7.83 36.3028C4.21031 33.3412 2.06719 29.0231 1.88812 24.375H9.375V22.5C9.375 21.4659 10.2159 20.625 11.25 20.625C12.2841 20.625 13.125 21.4659 13.125 22.5V24.375H18.75V28.125C16.6819 28.125 15 29.8069 15 31.875C15 33.9431 16.6819 35.625 18.75 35.625V43.125H12.1875V39.8681L7.83 36.3028ZM18.75 56.25C16.4869 56.25 14.5931 54.6366 14.1572 52.5H23.3428C22.9069 54.6366 21.0131 56.25 18.75 56.25ZM24.375 50.625H13.125C12.6075 50.625 12.1875 50.2041 12.1875 49.6875C12.1875 49.1709 12.6075 48.75 13.125 48.75H24.375C24.8925 48.75 25.3125 49.1709 25.3125 49.6875C25.3125 50.2041 24.8925 50.625 24.375 50.625ZM26.25 46.875H24.375H13.125H11.25C10.7325 46.875 10.3125 46.4541 10.3125 45.9375C10.3125 45.4209 10.7325 45 11.25 45H26.25C26.7675 45 27.1875 45.4209 27.1875 45.9375C27.1875 46.4541 26.7675 46.875 26.25 46.875ZM29.67 36.3028L25.3125 39.8681V43.125H20.625V33.75H18.75C17.7159 33.75 16.875 32.9091 16.875 31.875C16.875 30.8409 17.7159 30 18.75 30H20.625V24.375H26.25V22.5C26.25 21.4659 27.0909 20.625 28.125 20.625C29.1591 20.625 30 21.4659 30 22.5V24.375H35.6119C35.4328 29.0231 33.2897 33.3412 29.67 36.3028Z" fill="#01ADEF"/>
</svg>
