<svg width="40" height="40" viewBox="0 0 40 40" fill="none" xmlns="http://www.w3.org/2000/svg">
<g clip-path="url(#clip0_126_195)">
<path d="M39.6585 23.4661C39.4757 23.2833 39.2277 23.1807 38.9692 23.1807C38.7107 23.1807 38.4628 23.2833 38.28 23.4661L29.6061 32.14C29.5694 32.1767 29.5259 32.2058 29.478 32.2256C29.4301 32.2454 29.3788 32.2557 29.327 32.2557C29.2751 32.2557 29.2238 32.2454 29.1759 32.2256C29.128 32.2058 29.0845 32.1767 29.0479 32.14L26.2363 29.3285C26.053 29.1481 25.8058 29.0474 25.5486 29.0484C25.2914 29.0494 25.045 29.1521 24.8632 29.3339C24.6813 29.5158 24.5787 29.7622 24.5776 30.0194C24.5766 30.2766 24.6773 30.5238 24.8577 30.7071L29.0479 34.8972C29.0845 34.9339 29.128 34.963 29.1759 34.9828C29.2238 35.0026 29.2751 35.0128 29.327 35.0128C29.3788 35.0128 29.4301 35.0026 29.478 34.9828C29.5259 34.963 29.5694 34.9339 29.6061 34.8972L39.6585 24.8447C39.749 24.7542 39.8208 24.6467 39.8698 24.5285C39.9188 24.4102 39.944 24.2834 39.944 24.1554C39.944 24.0274 39.9188 23.9006 39.8698 23.7824C39.8208 23.6641 39.749 23.5566 39.6585 23.4661Z" fill="white"/>
<path d="M38.0069 29.8366C37.7484 29.8366 37.5005 29.9393 37.3177 30.1221C37.1348 30.3049 37.0322 30.5529 37.0322 30.8114C37.0322 32.2432 36.6076 33.6427 35.8122 34.8332C35.0167 36.0236 33.8862 36.9515 32.5634 37.4994C31.2407 38.0473 29.7851 38.1906 28.3809 37.9113C26.9767 37.632 25.6868 36.9425 24.6744 35.9302C23.662 34.9178 22.9726 33.6279 22.6933 32.2237C22.414 30.8195 22.5573 29.3639 23.1052 28.0412C23.6531 26.7184 24.581 25.5879 25.7714 24.7924C26.9619 23.997 28.3614 23.5724 29.7932 23.5724C30.9199 23.5689 32.0316 23.8312 33.0379 24.3381C33.2689 24.4541 33.5365 24.4736 33.782 24.3923C34.0274 24.311 34.2304 24.1355 34.3464 23.9045C34.4625 23.6734 34.482 23.4058 34.4007 23.1604C34.3194 22.915 34.1439 22.7119 33.9129 22.5959C32.6353 21.9519 31.2238 21.6185 29.7931 21.6226C27.9758 21.6226 26.1993 22.1615 24.6882 23.1711C23.1772 24.1808 21.9994 25.6158 21.304 27.2948C20.6085 28.9738 20.4265 30.8213 20.781 32.6037C21.1356 34.3861 22.0107 36.0234 23.2957 37.3084C24.5807 38.5935 26.2179 39.4686 28.0003 39.8232C29.7827 40.1778 31.6303 39.9958 33.3093 39.3004C34.9883 38.605 36.4233 37.4273 37.433 35.9163C38.4427 34.4052 38.9816 32.6287 38.9817 30.8114C38.9817 30.5529 38.879 30.3049 38.6962 30.1221C38.5134 29.9393 38.2654 29.8366 38.0069 29.8366Z" fill="white"/>
<path d="M31.8138 15.7701H30.1732C29.9024 15.7701 29.6427 15.8776 29.4512 16.0691C29.2597 16.2606 29.1522 16.5203 29.1522 16.7911C29.1522 17.0619 29.2597 17.3216 29.4512 17.5131C29.6427 17.7045 29.9024 17.8121 30.1732 17.8121H32.8397C33.1213 17.8015 33.388 17.6835 33.5852 17.4823C33.7825 17.2811 33.8952 17.0121 33.9002 16.7304C33.8495 12.2758 32.0444 8.02094 28.8765 4.88884C25.7086 1.75674 21.4335 8.17301e-05 16.9786 0C7.64731 0 0.0556641 7.59156 0.0556641 16.9229C0.0556641 26.2542 7.64731 33.8457 16.9786 33.8457C17.1975 33.8456 17.4106 33.7752 17.5864 33.6448C17.7622 33.5144 17.8915 33.331 17.9552 33.1216C17.9857 33.0344 18.0007 32.9424 17.9994 32.8499V29.9858C17.9971 29.7165 17.8884 29.4591 17.6972 29.2695C17.506 29.08 17.2476 28.9736 16.9784 28.9736C16.7091 28.9736 16.4507 29.08 16.2595 29.2695C16.0683 29.4591 15.9597 29.7165 15.9573 29.9858V31.768C8.52035 31.2615 2.56668 25.2666 2.12488 17.8125H3.78379C4.05458 17.8125 4.31428 17.7049 4.50576 17.5135C4.69723 17.322 4.8048 17.0623 4.8048 16.7915C4.8048 16.5207 4.69723 16.261 4.50576 16.0695C4.31428 15.878 4.05458 15.7705 3.78379 15.7705H2.14207C2.70652 8.43805 8.60809 2.57813 15.9575 2.07813V3.59633C15.9599 3.86558 16.0685 4.12301 16.2597 4.31257C16.451 4.50213 16.7093 4.60849 16.9786 4.60849C17.2479 4.60849 17.5062 4.50213 17.6975 4.31257C17.8887 4.12301 17.9973 3.86558 17.9997 3.59633V2.07813C25.3202 2.58148 31.2468 8.4525 31.8138 15.7701Z" fill="white"/>
<path d="M16.979 9.995C16.7082 9.995 16.4484 10.1026 16.2569 10.2941C16.0654 10.4856 15.9579 10.7453 15.9579 11.0161V16.3328L9.05342 20.3125C8.93627 20.3789 8.83343 20.4679 8.75081 20.5743C8.66819 20.6807 8.60744 20.8023 8.57204 20.9323C8.53664 21.0622 8.52729 21.1979 8.54454 21.3314C8.5618 21.465 8.6053 21.5939 8.67256 21.7105C8.73981 21.8272 8.82949 21.9295 8.93642 22.0113C9.04335 22.0932 9.16542 22.1531 9.29561 22.1877C9.42579 22.2222 9.56152 22.2306 9.69497 22.2124C9.82842 22.1942 9.95696 22.1498 10.0732 22.0818L17.4888 17.8079C17.5076 17.7971 17.524 17.7866 17.5393 17.7766C17.6809 17.6839 17.7972 17.5573 17.8776 17.4084C17.9581 17.2595 18.0002 17.0929 18.0002 16.9236V11.0161C18.0002 10.882 17.9738 10.7492 17.9225 10.6253C17.8711 10.5014 17.7959 10.3888 17.7011 10.294C17.6063 10.1992 17.4937 10.124 17.3698 10.0727C17.2459 10.0214 17.1131 9.99497 16.979 9.995Z" fill="white"/>
</g>
<defs>
<clipPath id="clip0_126_195">
<rect width="40" height="40" fill="white"/>
</clipPath>
</defs>
</svg>
