<svg width="21" height="25" viewBox="0 0 21 25" fill="none" xmlns="http://www.w3.org/2000/svg">
<path d="M10.5 0L0 3.81873V12.3064C0 21.8972 10.189 24.506 10.2915 24.5316L10.5 24.582L10.7085 24.5316C10.811 24.506 21 21.8972 21 12.3064V3.81873L10.5 0ZM19.25 12.3064C19.25 19.9003 11.892 22.3749 10.5034 22.7739C9.16443 22.3774 1.75 19.8353 1.75 12.3064V5.04407L10.5 1.86279L19.25 5.04407V12.3064Z" fill="#01ADEF"/>
<path d="M5.86865 11.6877L4.63135 12.925L8.75 17.0437L16.3687 9.42505L15.1313 8.18774L8.75 14.5691L5.86865 11.6877Z" fill="#01ADEF"/>
</svg>
