<svg width="25" height="20" viewBox="0 0 25 20" fill="none" xmlns="http://www.w3.org/2000/svg">
<path fill-rule="evenodd" clip-rule="evenodd" d="M18.5246 1.75H4.375C3.21475 1.75 2.10174 2.21112 1.28099 3.031C0.461116 3.85175 0 4.96475 0 6.125C0 8.54087 1.95913 10.5 4.375 10.5H20.125C20.8215 10.5 21.4891 10.7765 21.9809 11.2691C22.4735 11.7609 22.75 12.4285 22.75 13.125C22.75 13.8215 22.4735 14.4891 21.9809 14.9809C21.4891 15.4735 20.8215 15.75 20.125 15.75H5.97538C5.61488 14.7306 4.64187 14 3.5 14C2.051 14 0.875 15.176 0.875 16.625C0.875 18.074 2.051 19.25 3.5 19.25C4.64187 19.25 5.61488 18.5194 5.97538 17.5H20.125C21.2852 17.5 22.3983 17.0389 23.219 16.219C24.0389 15.3982 24.5 14.2852 24.5 13.125C24.5 11.9648 24.0389 10.8518 23.219 10.031C22.3983 9.21113 21.2852 8.75 20.125 8.75H4.375C2.92513 8.75 1.75 7.57487 1.75 6.125C1.75 5.4285 2.0265 4.76087 2.51912 4.26912C3.01087 3.7765 3.6785 3.5 4.375 3.5H18.5246C18.8851 4.51937 19.8581 5.25 21 5.25C22.449 5.25 23.625 4.074 23.625 2.625C23.625 1.176 22.449 0 21 0C19.8581 0 18.8851 0.730625 18.5246 1.75Z" fill="#01ADEF"/>
</svg>
