<svg width="28" height="28" viewBox="0 0 28 28" fill="none" xmlns="http://www.w3.org/2000/svg">
<g clip-path="url(#clip0_119_19)">
<path d="M27.942 4.11636C27.8067 3.84631 27.4782 3.73699 27.2082 3.87218L26.6271 4.16311C26.6784 3.99183 26.7097 3.8707 26.7123 3.86069C26.9852 2.81338 26.7847 1.91514 26.1326 1.26299C25.4594 0.589847 24.4681 0.470848 23.1859 0.909276C22.1952 1.24812 21.0234 1.91355 19.6093 2.93943C18.3059 2.18704 16.8751 1.65991 15.3799 1.39441C14.6252 1.26053 13.8509 1.19267 13.0785 1.19267C12.5197 1.19267 11.954 1.22892 11.397 1.30045C11.0975 1.33895 10.8858 1.61294 10.9243 1.91251C10.9628 2.21215 11.2369 2.42406 11.5363 2.38529C12.0473 2.31966 12.5662 2.28641 13.0785 2.28641C13.6338 2.28641 14.1899 2.32518 14.7375 2.40082V2.63739C14.7375 3.04093 14.9011 3.43539 15.1856 3.71889L16.3121 4.84528C16.6721 5.20534 16.1804 5.54998 16.0258 5.8576C14.464 7.24152 12.6876 8.93217 10.6268 10.993C9.83217 11.7875 9.09307 12.5395 8.40478 13.2536V12.8733C8.40478 12.4732 8.24903 12.0976 7.96701 11.8168L5.10697 8.95602C5.03172 8.88104 4.99027 8.78074 4.99027 8.67356V5.42951C5.66998 4.80739 6.41985 4.26314 7.22419 3.81191C7.48762 3.66415 7.58135 3.33083 7.43359 3.0674C7.28582 2.80397 6.95245 2.71024 6.68908 2.858C2.86704 5.00218 0.0100625 9.29322 0.0100625 13.7578C0.00339061 13.9327 0 14.1054 0 14.2711C0 16.6819 0.648208 18.993 1.86172 21.0059C1.23134 21.9721 0.796137 22.8126 0.543263 23.5519C0.104781 24.834 0.223835 25.8255 0.896981 26.4986C1.99122 27.5928 3.56539 27.1942 4.76736 26.5265C5.03139 26.3798 5.1265 26.0469 4.97982 25.7829C4.83315 25.5188 4.50027 25.4236 4.23619 25.5703C3.48713 25.9865 2.38568 26.4405 1.67037 25.7252C1.08959 25.1444 1.3966 23.8456 2.52737 22.0026C2.91948 22.5353 3.35419 23.0424 3.83068 23.5189C6.3009 25.9891 9.5852 27.3495 13.0785 27.3495C18.3731 27.3495 23.2743 24.029 25.2336 19.1085C25.8451 17.5728 26.1576 15.9238 26.1576 14.2711C26.1576 10.0483 24.0542 6.00356 20.6024 3.57424C22.9953 1.8989 24.6751 1.35213 25.3592 2.03644C25.7268 2.40393 25.8259 2.92494 25.6534 3.58693C25.6524 3.5907 25.5811 3.86665 25.479 4.1612L24.9385 3.36506C24.7689 3.1152 24.4289 3.05012 24.1789 3.21976C23.929 3.3894 23.8639 3.7295 24.0336 3.97937L25.1354 5.60216C25.2866 5.82566 25.5915 5.90458 25.8326 5.78399L27.6979 4.85015C27.9679 4.71496 28.0772 4.3864 27.942 4.11636ZM20.135 4.58415C20.9073 5.14699 21.6145 5.80302 22.2313 6.5331C24.0579 8.69122 25.0639 11.4393 25.0639 14.2711C25.0639 14.8639 25.0199 15.4566 24.9331 16.0429C24.8534 16.0255 24.7785 15.9855 24.7177 15.9245L23.4089 14.6157C23.1199 14.3267 22.7358 14.1676 22.3275 14.1676H21.0298C20.7894 14.1676 20.5939 13.9724 20.5939 13.7324V12.3802C20.5939 11.9772 20.4308 11.583 20.1465 11.2987L17.0848 8.23633C17.004 8.15583 16.9577 8.04383 16.9577 7.92899V6.54289C16.9577 6.52528 16.9592 6.50783 16.9613 6.49044C17.9461 5.62474 18.8417 4.88635 19.6659 4.25958C19.8247 4.3642 19.9813 4.4721 20.135 4.58415ZM17.0855 4.07179L15.9584 2.94468C15.8776 2.86418 15.8313 2.75218 15.8313 2.63734C15.8287 2.62777 15.8313 2.61464 15.8313 2.60464C16.8114 2.83536 17.7606 3.19149 18.6516 3.66043C18.2643 3.96214 17.8624 4.28671 17.4439 4.63594C17.3687 4.42611 17.2476 4.23388 17.0855 4.07179ZM8.80618 16.0397H11.6937C11.9147 16.0397 12.0944 16.2194 12.0944 16.4404V20.1657C12.0944 20.271 12.0516 20.3742 11.977 20.4489L7.61077 24.8151C7.53093 24.895 7.39306 24.8372 7.39306 24.7245V20.4384C7.39306 20.0389 7.23781 19.6636 6.95584 19.3818L5.55585 17.9823C6.19601 17.2341 6.91384 16.4324 7.7178 15.568C7.99069 15.858 8.37749 16.0397 8.80618 16.0397ZM7.19439 12.5908C7.26963 12.6657 7.31109 12.766 7.31109 12.8732V14.4022C6.53475 15.2281 5.83234 16.0001 5.19825 16.7247V14.7262C5.19825 13.9022 4.52756 13.2317 3.70315 13.2317H1.13848C1.34591 10.7891 2.31836 8.44338 3.89658 6.56837V8.67345C3.89658 9.0736 4.05233 9.44913 4.33435 9.73001L7.19439 12.5908ZM1.0944 14.3255H3.70309C3.92441 14.3255 4.10444 14.5053 4.10444 14.7262V17.4584C4.10444 17.618 4.12966 17.7736 4.1774 17.9211C3.61631 18.5972 3.1192 19.2304 2.68072 19.8275C2.6362 19.8881 2.59344 19.9475 2.55023 20.0072C1.60797 18.2834 1.10332 16.3434 1.0944 14.3255ZM3.17208 21.0206C3.29611 20.8425 3.42572 20.6608 3.56227 20.4749C3.9441 19.9549 4.37241 19.4059 4.85038 18.8237L6.18256 20.1553C6.25781 20.2305 6.29926 20.331 6.29926 20.4384V24.1571C5.69858 23.7433 5.13087 23.2723 4.60401 22.7454C4.06852 22.21 3.59071 21.6323 3.17208 21.0206ZM8.58503 25.3876L12.7504 21.2223C13.0286 20.944 13.1882 20.5589 13.1882 20.1657V16.4404C13.1882 15.6163 12.5178 14.9459 11.6937 14.9459H8.80618C8.66668 14.9459 8.54363 14.8743 8.47172 14.7659C9.35174 13.8382 10.3245 12.842 11.4002 11.7662C13.0653 10.1011 14.5405 8.68203 15.864 7.47416V7.92899C15.864 8.33253 16.0276 8.72699 16.3121 9.01043L19.373 12.072C19.4539 12.1528 19.5001 12.2651 19.5001 12.3802V13.7324C19.5001 14.5755 20.1863 15.2614 21.0298 15.2614H22.3275C22.4421 15.2614 22.5543 15.3079 22.6356 15.3892L23.9439 16.6974C24.1628 16.9168 24.4345 17.0591 24.7231 17.1174C24.5726 17.7353 24.3724 18.3407 24.125 18.9273C24.033 18.9136 23.9403 18.906 23.8476 18.906H21.2377C20.7283 18.906 20.2495 19.1042 19.8897 19.464L19.1314 20.2223C18.3961 20.9575 18.3983 22.1809 19.1314 22.9177L20.1562 23.9426C18.113 25.4379 15.6232 26.2557 13.0785 26.2557C11.5131 26.2558 9.99394 25.9569 8.58503 25.3876ZM23.4736 20.2396C22.9603 21.1289 22.3328 21.9497 21.6141 22.6827C21.4206 22.88 21.2194 23.0691 21.0124 23.2522L19.9057 22.1454C19.5942 21.8325 19.5911 21.3094 19.9047 20.9958L20.6629 20.2375C20.814 20.0865 21.0235 19.9999 21.2376 19.9999H23.6077C23.5638 20.0801 23.5194 20.1602 23.4736 20.2396Z" fill="#00AEEE"/>
<path d="M8.68439 2.56403C8.79896 2.83905 9.12287 2.97408 9.3986 2.85989C9.67374 2.74598 9.80832 2.42064 9.69446 2.14567C9.58044 1.87027 9.25549 1.73617 8.98024 1.84981C8.70517 1.9634 8.56981 2.28901 8.68439 2.56403Z" fill="black"/>
</g>
<defs>
<clipPath id="clip0_119_19">
<rect width="28" height="28" fill="white"/>
</clipPath>
</defs>
</svg>
