<svg width="31" height="22" viewBox="0 0 31 22" fill="none" xmlns="http://www.w3.org/2000/svg">
<path d="M30.7012 10.56L28.2702 5.06C28.185 4.86495 28.0452 4.69877 27.8675 4.58163C27.6898 4.46448 27.482 4.40139 27.2692 4.4H21.384L21.7361 1.221C21.7534 1.06668 21.7378 0.910434 21.6904 0.762552C21.643 0.61467 21.5649 0.4785 21.4611 0.363C21.3582 0.249048 21.2326 0.157882 21.0925 0.0953647C20.9523 0.0328473 20.8005 0.000362812 20.647 0H5.49977C5.20802 0 4.92823 0.115893 4.72193 0.322183C4.51564 0.528472 4.39975 0.808261 4.39975 1.1C4.39975 1.39174 4.51564 1.67153 4.72193 1.87782C4.92823 2.08411 5.20802 2.2 5.49977 2.2H19.415L17.71 17.6H12.4959C12.3815 17.1344 12.1549 16.7039 11.8359 16.346C11.5711 16.0446 11.2443 15.804 10.8778 15.6408C10.5114 15.4775 10.114 15.3953 9.71284 15.4C9.03459 15.4179 8.37687 15.6365 7.82278 16.0281C7.2687 16.4196 6.84311 16.9666 6.59979 17.6H3.29973C3.00798 17.6 2.72819 17.7159 2.5219 17.9222C2.3156 18.1285 2.19971 18.4083 2.19971 18.7C2.19971 18.9917 2.3156 19.2715 2.5219 19.4778C2.72819 19.6841 3.00798 19.8 3.29973 19.8H6.43478C6.55356 20.2639 6.77964 20.6934 7.09479 21.054C7.36186 21.3526 7.68911 21.5912 8.05503 21.7543C8.42094 21.9173 8.81723 22.0011 9.21783 22C9.89572 21.9806 10.5528 21.7615 11.1066 21.3701C11.6604 20.9787 12.0863 20.4325 12.3309 19.8H20.735C20.8538 20.2639 21.0799 20.6934 21.395 21.054C21.6621 21.3526 21.9894 21.5912 22.3553 21.7543C22.7212 21.9173 23.1175 22.0011 23.5181 22C24.196 21.9806 24.853 21.7615 25.4069 21.3701C25.9607 20.9787 26.3866 20.4325 26.6311 19.8H28.8312C29.1031 19.8016 29.366 19.7025 29.5692 19.5217C29.7723 19.3409 29.9013 19.0913 29.9312 18.821L30.7782 11.121C30.8084 10.9305 30.7816 10.7353 30.7012 10.56ZM9.21783 19.8C9.12661 19.8039 9.03569 19.7872 8.95186 19.751C8.86804 19.7148 8.7935 19.6601 8.73382 19.591C8.64747 19.4842 8.5843 19.3605 8.54832 19.228C8.51233 19.0954 8.50433 18.9568 8.52482 18.821C8.55292 18.5121 8.68626 18.2223 8.90253 18C9.1188 17.7778 9.40487 17.6365 9.71284 17.6C9.80406 17.596 9.89499 17.6128 9.97881 17.649C10.0626 17.6852 10.1372 17.7399 10.1968 17.809C10.2832 17.9158 10.3464 18.0394 10.3824 18.172C10.4183 18.3046 10.4263 18.4432 10.4059 18.579C10.3778 18.8878 10.2444 19.1777 10.0281 19.3999C9.81187 19.6222 9.5258 19.7634 9.21783 19.8ZM28.0062 9.89999H24.8381L25.2011 6.6H26.5541L28.0062 9.89999ZM23.5181 19.8C23.4269 19.8039 23.3359 19.7872 23.2521 19.751C23.1683 19.7148 23.0938 19.6601 23.0341 19.591C22.9477 19.4842 22.8846 19.3605 22.8486 19.228C22.8126 19.0954 22.8046 18.9568 22.8251 18.821C22.8532 18.5121 22.9865 18.2223 23.2028 18C23.4191 17.7778 23.7051 17.6365 24.0131 17.6C24.1043 17.596 24.1952 17.6128 24.2791 17.649C24.3629 17.6852 24.4374 17.7399 24.4971 17.809C24.5835 17.9158 24.6466 18.0394 24.6826 18.172C24.7186 18.3046 24.7266 18.4432 24.7061 18.579C24.678 18.8878 24.5447 19.1777 24.3284 19.3999C24.1121 19.6222 23.8261 19.7634 23.5181 19.8ZM26.8181 17.6C26.7038 17.1344 26.4772 16.7039 26.1581 16.346C25.8895 16.0435 25.5589 15.8024 25.1887 15.6392C24.8186 15.4759 24.4176 15.3943 24.0131 15.4C23.3348 15.4179 22.6771 15.6365 22.123 16.0281C21.569 16.4196 21.1434 16.9666 20.9 17.6H19.91L21.131 6.6H22.9901L22.5171 10.879C22.4997 11.0333 22.5153 11.1896 22.5627 11.3374C22.6101 11.4853 22.6883 11.6215 22.7921 11.737C22.8949 11.8509 23.0205 11.9421 23.1607 12.0046C23.3009 12.0671 23.4526 12.0996 23.6061 12.1H28.4682L27.8632 17.6H26.8181Z" fill="#01ADEF"/>
<path d="M5.49969 15.4C5.79143 15.4 6.07123 15.2841 6.27752 15.0778C6.48381 14.8715 6.59971 14.5917 6.59971 14.3C6.59971 14.0082 6.48381 13.7284 6.27752 13.5221C6.07123 13.3158 5.79143 13.2 5.49969 13.2H2.19963C1.90789 13.2 1.62809 13.3158 1.4218 13.5221C1.2155 13.7284 1.09961 14.0082 1.09961 14.3C1.09961 14.5917 1.2155 14.8715 1.4218 15.0778C1.62809 15.2841 1.90789 15.4 2.19963 15.4H5.49969Z" fill="#01ADEF"/>
<path d="M2.20004 11C2.49178 11 2.77158 10.8841 2.97787 10.6778C3.18416 10.4715 3.30006 10.1917 3.30006 9.89999C3.30006 9.60825 3.18416 9.32846 2.97787 9.12217C2.77158 8.91588 2.49178 8.79999 2.20004 8.79999H1.10002C0.808276 8.79999 0.528482 8.91588 0.322188 9.12217C0.115895 9.32846 0 9.60825 0 9.89999C0 10.1917 0.115895 10.4715 0.322188 10.6778C0.528482 10.8841 0.808276 11 1.10002 11H2.20004Z" fill="#01ADEF"/>
<path d="M6.60002 8.79999C6.30828 8.79999 6.02848 8.91588 5.82219 9.12217C5.61589 9.32846 5.5 9.60825 5.5 9.89999C5.5 10.1917 5.61589 10.4715 5.82219 10.6778C6.02848 10.8841 6.30828 11 6.60002 11H11.0001C11.2918 11 11.5716 10.8841 11.7779 10.6778C11.9842 10.4715 12.1001 10.1917 12.1001 9.89999C12.1001 9.60825 11.9842 9.32846 11.7779 9.12217C11.5716 8.91588 11.2918 8.79999 11.0001 8.79999H6.60002Z" fill="#01ADEF"/>
<path d="M3.29973 6.60002H14.2999C14.5917 6.60002 14.8715 6.48413 15.0778 6.27784C15.284 6.07155 15.3999 5.79176 15.3999 5.50002C15.3999 5.20829 15.284 4.9285 15.0778 4.72221C14.8715 4.51592 14.5917 4.40002 14.2999 4.40002H3.29973C3.00798 4.40002 2.72819 4.51592 2.5219 4.72221C2.3156 4.9285 2.19971 5.20829 2.19971 5.50002C2.19971 5.79176 2.3156 6.07155 2.5219 6.27784C2.72819 6.48413 3.00798 6.60002 3.29973 6.60002Z" fill="#01ADEF"/>
</svg>
