<svg width="28" height="28" viewBox="0 0 28 28" fill="none" xmlns="http://www.w3.org/2000/svg">
<path d="M27.9927 15.2408L26.2425 4.57544C26.214 4.40132 26.1032 4.25169 25.945 4.1736C25.7868 4.09556 25.6006 4.09857 25.4451 4.18164L21.1049 6.5018C20.8588 6.63338 20.7512 6.92913 20.8553 7.18813L21.1374 7.88993C20.3361 8.2384 19.42 8.26711 18.5966 7.96436C17.0915 7.41092 15.433 7.49913 14 8.19935C12.5672 7.49919 10.9086 7.41103 9.40342 7.96436C8.58004 8.26705 7.66398 8.23834 6.86259 7.88987L7.14472 7.18807C7.24879 6.92913 7.14128 6.63332 6.89513 6.50175L2.55498 4.18169C2.39945 4.09851 2.21324 4.09556 2.05509 4.17365C1.89687 4.25175 1.78608 4.40137 1.75753 4.5755L0.00726521 15.2408C-0.0354456 15.501 0.113687 15.7546 0.361803 15.8439L2.75153 16.7036C2.81261 16.7255 2.87507 16.736 2.93659 16.736C3.15381 16.736 3.3585 16.6057 3.44403 16.393L3.72119 15.7036L4.99097 16.7092C5.0228 17.1292 5.1984 17.5402 5.51887 17.8606C5.87056 18.2123 6.33119 18.3898 6.79308 18.3939C6.79713 18.8558 6.9747 19.3164 7.32634 19.6681C7.67803 20.0198 8.13866 20.1972 8.60055 20.2013C8.6046 20.6632 8.78217 21.1239 9.13386 21.4756C9.48966 21.8314 9.95696 22.0093 10.4243 22.0093C10.5272 22.0093 10.6301 22.0001 10.7319 21.9828C10.7905 22.349 10.9603 22.7007 11.2419 22.9825C11.5977 23.3383 12.065 23.5161 12.5324 23.5161C12.8818 23.5161 13.2312 23.4166 13.534 23.2177L13.6656 23.3494C14.0214 23.7052 14.4887 23.883 14.9561 23.883C15.4234 23.883 15.8907 23.7052 16.2465 23.3494C16.4688 23.1272 16.6216 22.8614 16.705 22.5793C16.924 22.6702 17.1608 22.7178 17.405 22.7178C17.8925 22.7178 18.3507 22.528 18.6954 22.1833C18.9821 21.8967 19.153 21.5376 19.2087 21.1645C19.3017 21.1788 19.3955 21.1864 19.4893 21.1864C19.9567 21.1864 20.424 21.0085 20.7798 20.6527C21.1207 20.3119 21.3097 19.8598 21.3139 19.3785C21.7755 19.3742 22.2358 19.1967 22.5873 18.8453C23.1281 18.3045 23.2574 17.5063 22.9763 16.8417L24.4261 16.0702L24.556 16.3931C24.6415 16.6059 24.8462 16.7361 25.0634 16.7361C25.1249 16.7361 25.1875 16.7257 25.2485 16.7037L27.6382 15.844C27.8863 15.7547 28.0354 15.501 27.9927 15.2408ZM2.62586 15.496L1.16029 14.9688L2.71308 5.50644L5.94696 7.23516L2.62586 15.496ZM7.32623 17.0873C7.04114 17.3723 6.5774 17.3722 6.29237 17.0872C6.00728 16.8021 6.00728 16.3382 6.29237 16.0532L6.88895 15.4566C7.02703 15.3185 7.21067 15.2425 7.40596 15.2425C7.60125 15.2425 7.78489 15.3185 7.92298 15.4566C8.20806 15.7417 8.20806 16.2056 7.92298 16.4907L7.32639 17.0872C7.32634 17.0872 7.32628 17.0873 7.32623 17.0873ZM9.13386 18.8947C8.84878 19.1798 8.38486 19.1798 8.09978 18.8947C7.8148 18.6097 7.81475 18.1461 8.09945 17.861C8.09956 17.8609 8.09973 17.8608 8.09983 17.8606L9.44022 16.5202C9.57831 16.3822 9.76195 16.306 9.95723 16.306C10.1525 16.306 10.3362 16.3822 10.4742 16.5202C10.7593 16.8053 10.7593 17.2692 10.4742 17.5543L9.13386 18.8947ZM10.9414 20.7022C10.6564 20.9872 10.1924 20.9874 9.9073 20.7022C9.62216 20.4171 9.62216 19.9532 9.9073 19.6681L11.2477 18.3277C11.3902 18.1852 11.5775 18.1139 11.7647 18.1139C11.952 18.1139 12.1392 18.1852 12.2818 18.3277C12.4199 18.4658 12.496 18.6494 12.496 18.8447C12.496 19.04 12.4199 19.2237 12.2818 19.3617L10.9414 20.7022ZM13.5218 21.7367L13.0494 22.209C12.7643 22.4942 12.3004 22.4941 12.0153 22.209C11.7303 21.924 11.7302 21.4602 12.0152 21.1751L12.4876 20.7027C12.6301 20.5602 12.8174 20.4888 13.0046 20.4888C13.1919 20.4888 13.3791 20.5602 13.5217 20.7027C13.8068 20.9877 13.8068 21.4516 13.5218 21.7367ZM15.4731 22.5759C15.1881 22.861 14.7242 22.861 14.439 22.5759L14.3332 22.4701C14.6534 22.1303 14.8296 21.6886 14.8296 21.2196C14.8296 21.0988 14.8178 20.9798 14.795 20.8638L15.473 21.5417C15.7582 21.8269 15.7582 22.2908 15.4731 22.5759ZM21.8139 18.0718C21.5288 18.3569 21.0649 18.3569 20.7798 18.0718L17.2448 14.5367C17.0312 14.3233 16.685 14.3232 16.4714 14.5367C16.2578 14.7503 16.2578 15.0966 16.4714 15.3102L20.0064 18.8452C20.1445 18.9833 20.2206 19.1669 20.2206 19.3622C20.2206 19.5575 20.1445 19.7412 20.0064 19.8792C19.7213 20.1643 19.2574 20.1644 18.9723 19.8792L16.4138 17.3208C16.2002 17.1073 15.8539 17.1073 15.6403 17.3208C15.4268 17.5343 15.4268 17.8806 15.6403 18.0942L17.922 20.3759C18.0601 20.5139 18.1362 20.6976 18.1362 20.8929C18.1362 21.0882 18.0601 21.2718 17.922 21.4099C17.7839 21.548 17.6003 21.6241 17.405 21.6241C17.2097 21.6241 17.0261 21.548 16.888 21.4099L15.2442 19.7661C15.0307 19.5526 14.6844 19.5526 14.4708 19.7661C14.4095 19.8275 14.3664 19.8998 14.3403 19.9767C14.3254 19.9608 14.3106 19.9448 14.2951 19.9293C14.0665 19.7008 13.788 19.5408 13.4842 19.4586C13.5534 19.2642 13.5896 19.0573 13.5896 18.8448C13.5896 18.3573 13.3997 17.899 13.055 17.5543C12.7034 17.2026 12.2427 17.0251 11.7808 17.021C11.7767 16.5591 11.5992 16.0985 11.2476 15.7469C10.9029 15.4022 10.4446 15.2123 9.95712 15.2123C9.66832 15.2123 9.39002 15.2795 9.13928 15.4054C9.05314 15.1412 8.90582 14.8929 8.69625 14.6832C8.35156 14.3385 7.89328 14.1488 7.4058 14.1488C6.91832 14.1488 6.46004 14.3386 6.1154 14.6832L5.51881 15.2798C5.43345 15.3652 5.35858 15.4571 5.29367 15.5539L4.1466 14.6454L6.45462 8.90443C7.50593 9.35292 8.70331 9.3871 9.7807 8.991C10.7419 8.63767 11.78 8.60611 12.7457 8.88431L11.3547 9.65376C10.849 9.93343 10.4832 10.4165 10.351 10.979C10.2189 11.5416 10.3313 12.1371 10.6595 12.6127C11.1903 13.382 12.1739 13.6949 13.0518 13.3739L16.0497 12.277C16.496 12.1138 17.0014 12.2254 17.3374 12.5614L21.8137 17.0377C22.099 17.3228 22.099 17.7867 21.8139 18.0718ZM22.2905 15.9675L18.1109 11.788C17.4751 11.152 16.5185 10.941 15.674 11.2499L12.6762 12.3467C12.2666 12.4966 11.8076 12.3504 11.5598 11.9915C11.4044 11.7663 11.3533 11.4956 11.4159 11.2292C11.4785 10.9629 11.6448 10.7432 11.8842 10.6108L14.2646 9.29397C15.4771 8.62323 16.9185 8.51276 18.2191 8.991C19.2965 9.3871 20.4939 9.35287 21.5452 8.90443L24.0156 15.0494L22.2905 15.9675ZM25.3741 15.496L22.053 7.23516L25.2869 5.50644L26.8397 14.9688L25.3741 15.496Z" fill="#01ADEF"/>
</svg>
