<svg width="28" height="24" viewBox="0 0 28 24" fill="none" xmlns="http://www.w3.org/2000/svg">
<path d="M27.5625 5.60541L18.0567 0.11725C17.9237 0.0404304 17.7728 -8.68025e-06 17.6192 1.39757e-09H12.2359C12.0038 1.39757e-09 11.7813 0.0921872 11.6172 0.256282C11.4531 0.420376 11.3609 0.642936 11.3609 0.875C11.3609 1.10706 11.4531 1.32962 11.6172 1.49372C11.7813 1.65781 12.0038 1.75 12.2359 1.75H14.3537L7.87894 5.48816H0.875C0.642936 5.48816 0.420376 5.58035 0.256282 5.74445C0.0921873 5.90854 0 6.1311 0 6.36316C0 6.59523 0.0921873 6.81779 0.256282 6.98188C0.420376 7.14598 0.642936 7.23816 0.875 7.23816H7.87894L16.7442 12.3565V21.3123L8.55088 16.5818C8.41786 16.505 8.26698 16.4646 8.11338 16.4645H0.875C0.642936 16.4645 0.420376 16.5567 0.256282 16.7208C0.0921873 16.8849 0 17.1075 0 17.3395C0 17.5716 0.0921873 17.7942 0.256282 17.9583C0.420376 18.1224 0.642936 18.2145 0.875 18.2145H7.87894L17.1817 23.5854C17.3147 23.6622 17.4656 23.7026 17.6192 23.7026C17.7728 23.7026 17.9237 23.6622 18.0567 23.5854L27.5625 18.0973C27.6955 18.0205 27.806 17.91 27.8828 17.777C27.9596 17.644 28 17.4931 28 17.3395V6.36316C28 6.20957 27.9596 6.05869 27.8828 5.92568C27.806 5.79266 27.6955 5.68221 27.5625 5.60541ZM25.375 6.36316L17.6192 10.841L9.86344 6.36316L17.6192 1.88535L25.375 6.36316ZM18.4942 21.3123V12.3565L26.25 7.87866V16.8343L18.4942 21.3123ZM2.52022 0.875C2.52022 0.642936 2.61241 0.420376 2.7765 0.256282C2.94059 0.0921872 3.16315 1.39757e-09 3.39522 1.39757e-09H9.05494C9.287 1.39757e-09 9.50956 0.0921872 9.67366 0.256282C9.83775 0.420376 9.92994 0.642936 9.92994 0.875C9.92994 1.10706 9.83775 1.32962 9.67366 1.49372C9.50956 1.65781 9.287 1.75 9.05494 1.75H3.39522C3.16315 1.75 2.94059 1.65781 2.7765 1.49372C2.61241 1.32962 2.52022 1.10706 2.52022 0.875ZM3.39522 12.7263C3.16315 12.7263 2.94059 12.6341 2.7765 12.47C2.61241 12.306 2.52022 12.0834 2.52022 11.8513C2.52022 11.6193 2.61241 11.3967 2.7765 11.2326C2.94059 11.0685 3.16315 10.9763 3.39522 10.9763H7.94555C8.17761 10.9763 8.40017 11.0685 8.56427 11.2326C8.72836 11.3967 8.82055 11.6193 8.82055 11.8513C8.82055 12.0834 8.72836 12.306 8.56427 12.47C8.40017 12.6341 8.17761 12.7263 7.94555 12.7263H3.39522Z" fill="#01ADEF"/>
</svg>
